<svg version="1.1" viewBox="0 0 190 100"
    xmlns="http://www.w3.org/2000/svg">

    <style>

    :root {
        background: #202024;
        user-select: none;
        --left-x: 12px;
        --right-x: 158px;
        --top-y: 22px;
        --bottom-y: 82px;
        --red: #e56172;
    }

    .temperature {
        font: 5px 'Segoe UI', sans-serif;
    }

    .white {
        fill: #fafafb;
    }

    .opacity-80 {
        opacity: .8;
    }

    .red {
        fill: var(--red);
    }

    .channel {
        fill: url(#channel-fill);
        stroke-linejoin: round;
        stroke-width: 2px;
    }

    .warmer-outside .channel {
        fill: url(#channel-fill-warmer-outside);
    }

    .bypass .bypass-hidden, .bypass-visible {
        display: none;
    }

    .bypass .bypass-visible {
        display: block;
    }

    .preheater-visible {
        display: none;
        opacity: 0;
    }

    .preheater .preheater-visible {
        display: block;
        opacity: 1;
        transition: opacity .3s ease-in;
    }

    .exhaust-in {
        transform: translate(var(--right-x), var(--top-y));
        transition: transform .25s ease-out;
    }

    .exhaust-treated, .bypass .fresh-in {
        transform: translate(var(--left-x), var(--bottom-y));
        transition: transform .25s ease-out;
    }

    .fresh-in, .bypass .exhaust-treated {
        transform: translate(var(--left-x), var(--top-y));
        transition: transform .25s ease-out;
    }

    .fresh-treated {
        transform: translate(var(--right-x), var(--bottom-y));
        transition: transform .25s ease-out;
    }


    </style>

    <defs>
        <polygon id="arrow-in" transform="translate(0,-9) scale(.8)" points="0 4, 14 4, 14 0, 24 9, 14 18, 14 14, 0 14" class="white opacity-80" stroke="none" />

        <g id="arrow-out">
            <use href="#arrow-in" transform="scale(-1,1) translate(-20)" />
        </g>

        <linearGradient id="channel-fill" x1="0" y1="0" x2="190" y2="0" gradientUnits="userSpaceOnUse">
            <stop offset="0" stop-color="#56cbf1" />
            <stop offset="0.14285714285714285" stop-color="#66bdfa" />
            <stop offset="0.2857142857142857" stop-color="#8bacf8" />
            <stop offset="0.42857142857142855" stop-color="#b297e7" />
            <stop offset="0.5714285714285714" stop-color="#d181c9" />
            <stop offset="0.7142857142857142" stop-color="#e36da0" />
            <stop offset="0.8571428571428571" stop-color="#e56172" />
            <stop offset="1" stop-color="#d56243" />
        </linearGradient>

        <linearGradient id="channel-fill-warmer-outside" x1="190" y1="0" x2="0" y2="0" gradientUnits="userSpaceOnUse">
            <stop offset="0" stop-color="#56cbf1" />
            <stop offset="0.14285714285714285" stop-color="#66bdfa" />
            <stop offset="0.2857142857142857" stop-color="#8bacf8" />
            <stop offset="0.42857142857142855" stop-color="#b297e7" />
            <stop offset="0.5714285714285714" stop-color="#d181c9" />
            <stop offset="0.7142857142857142" stop-color="#e36da0" />
            <stop offset="0.8571428571428571" stop-color="#e56172" />
            <stop offset="1" stop-color="#d56243" />
        </linearGradient>

        <g id="channel">
            <polygon class="channel bypass-hidden" points="0,10 50,10 125,70 170,70 170,90 120,90 45,30 0,30" />
        </g>

        <g id="channel-bypass">
            <polygon class="channel bypass-visible" points="0,10 170,10 170,30 0,30" />
        </g>

        <g id="radiator" transform="scale(.02)">
            <g transform="translate(-280 -340)" class="red">
                <path d="M160,0H96C84.218,0,74.667,9.551,74.667,21.333v21.333H32c-11.782,0-21.333,9.551-21.333,21.333v64
				c0,11.782,9.551,21.333,21.333,21.333h42.667v213.333H32c-11.782,0-21.333,9.551-21.333,21.333v64
				c0,11.782,9.551,21.333,21.333,21.333h42.667v21.333C74.667,502.449,84.218,512,96,512h64c11.782,0,21.333-9.551,21.333-21.333
				V21.333C181.333,9.551,171.782,0,160,0z M53.333,106.667V85.333h21.333v21.333H53.333z M53.333,426.667v-21.333h21.333v21.333
				H53.333z M138.667,469.333h-21.333V448v-64V128V64V42.667h21.333V469.333z"/>
                <path d="M288,0h-64c-11.782,0-21.333,9.551-21.333,21.333v469.333c0,11.782,9.551,21.333,21.333,21.333h64
				c11.782,0,21.333-9.551,21.333-21.333V21.333C309.333,9.551,299.782,0,288,0z M266.667,469.333h-21.333V42.667h21.333V469.333z" />
                <path d="M480,149.333c11.782,0,21.333-9.551,21.333-21.333V64c0-11.782-9.551-21.333-21.333-21.333h-42.667V21.333
				C437.333,9.551,427.782,0,416,0h-64c-11.782,0-21.333,9.551-21.333,21.333v469.333c0,11.782,9.551,21.333,21.333,21.333h64
				c11.782,0,21.333-9.551,21.333-21.333v-21.333H480c11.782,0,21.333-9.551,21.333-21.333v-64c0-11.782-9.551-21.333-21.333-21.333
				h-42.667V149.333H480z M458.667,85.333v21.333h-21.333V85.333H458.667z M394.667,469.333h-21.333V42.667h21.333V64v64v256v64
				V469.333z M458.667,405.333v21.333h-21.333v-21.333H458.667z"/>
            </g>
        </g>
    </defs>

    <use x="10" y="0" href="#channel" />
    <use x="10" y="0" href="#channel-bypass" />
    <use x="10" y="0" href="#channel" transform="scale(1, -1) translate(-0,-100)" />
    <use x="10" y="60" href="#channel-bypass" />


    <g class="fresh-in">
        <g>
            <title>Incoming fresh air temperature</title>
            <use href="#arrow-in" x="0" y="0" />
            <text id="fresh-in-temperature" class="temperature" x="12" y="0" text-anchor="end">10 °C</text>
        </g>
        <g transform="translate(26,0)" class="preheater-visible">
            <title>Preheater temperature</title>
            <use href="#radiator" x="0" y="0" />
            <text id="preheater-temperature" class="temperature white" x="6" y="0">60 °C</text>
        </g>
    </g>

    <g class="fresh-treated">
        <title>Treated fresh air temperature</title>
        <use href="#arrow-in" x="0" y="0" />
        <text id="fresh-treated-temperature" class="temperature" x="12" y="0" text-anchor="end">19 °C</text>
    </g>

    <g class="exhaust-treated">
        <title>Treated exhaust temperature</title>
        <use href="#arrow-out" x="0" y="0" />
        <text id="exhaust-treated-temperature" class="temperature" x="19" y="0" text-anchor="end">14 °C</text>
    </g>

    <g class="exhaust-in">
        <title>Untreated exhaust temperature</title>
        <use href="#arrow-out" x="0" y="0" />
        <text class="temperature" x="19" y="0" text-anchor="end">24 °C</text>
    </g>

</svg>