<svg version="1.1" viewBox="0 0 200 100"
    xmlns="http://www.w3.org/2000/svg" class="ventilation-root">

    <style>

    .ventilation-root {
        background: #202024;
        user-select: none;
        --left-x: 2px;
        --right-x: 164px;
        --top-y: 22px;
        --bottom-y: 82px;
        --red: #e56172;
    }

    .ventilation-root .label {
        font: 5px 'Segoe UI', sans-serif;
    }

    .ventilation-root .white {
        fill: #fafafb;
    }

    .ventilation-root .opacity-80 {
        opacity: .8;
    }

    .ventilation-root .red {
        fill: var(--red);
    }

    .ventilation-root .channel {
        fill: url(#channel-fill);
        stroke-linejoin: round;
        stroke-width: 2px;
        transition: clip-path .25s ease-out;
    }

    .ventilation-root.bypass .bypass-hidden, .bypass-visible {
        display: none;
    }

    .ventilation-root.bypass .bypass-visible {
        display: block;
    }

    .ventilation-root .preheater-visible {
        display: none;
        opacity: 0;
    }

    .ventilation-root.preheater .preheater-visible {
        display: block;
        opacity: 1;
        transition: opacity .3s ease-in;
    }

    .ventilation-root .fresh-in {
        transform: translate(var(--left-x), var(--top-y));
        transition: transform .25s ease-out;
    }

    .ventilation-root .fresh-treated {
        transform: translate(var(--right-x), var(--top-y));
        transition: transform .25s ease-out;
    }

    .ventilation-root .exhaust-treated {
        transform: translate(var(--left-x), var(--bottom-y));
        transition: transform .25s ease-out;
    }

    .ventilation-root .exhaust-in {
        transform: translate(var(--right-x), var(--bottom-y));
        transition: transform .25s ease-out;
    }


    </style>

    <script href="ventilation.js"></script>

    <defs>
        <linearGradient id="channel-fill" x1="0" y1="0" x2="190" y2="0" gradientUnits="userSpaceOnUse">
            <stop offset="0" stop-color="#56cbf1" />
            <stop offset="0.14285714285714285" stop-color="#66bdfa" />
            <stop offset="0.2857142857142857" stop-color="#8bacf8" />
            <stop offset="0.42857142857142855" stop-color="#b297e7" />
            <stop offset="0.5714285714285714" stop-color="#d181c9" />
            <stop offset="0.7142857142857142" stop-color="#e36da0" />
            <stop offset="0.8571428571428571" stop-color="#e56172" />
            <stop offset="1" stop-color="#d56243" />
        </linearGradient>

        <g id="radiator" transform="scale(.02)">
            <g transform="translate(-280 -340)">
                <path d="M160,0H96C84.218,0,74.667,9.551,74.667,21.333v21.333H32c-11.782,0-21.333,9.551-21.333,21.333v64
				c0,11.782,9.551,21.333,21.333,21.333h42.667v213.333H32c-11.782,0-21.333,9.551-21.333,21.333v64
				c0,11.782,9.551,21.333,21.333,21.333h42.667v21.333C74.667,502.449,84.218,512,96,512h64c11.782,0,21.333-9.551,21.333-21.333
				V21.333C181.333,9.551,171.782,0,160,0z M53.333,106.667V85.333h21.333v21.333H53.333z M53.333,426.667v-21.333h21.333v21.333
				H53.333z M138.667,469.333h-21.333V448v-64V128V64V42.667h21.333V469.333z"/>
                <path d="M288,0h-64c-11.782,0-21.333,9.551-21.333,21.333v469.333c0,11.782,9.551,21.333,21.333,21.333h64
				c11.782,0,21.333-9.551,21.333-21.333V21.333C309.333,9.551,299.782,0,288,0z M266.667,469.333h-21.333V42.667h21.333V469.333z" />
                <path d="M480,149.333c11.782,0,21.333-9.551,21.333-21.333V64c0-11.782-9.551-21.333-21.333-21.333h-42.667V21.333
				C437.333,9.551,427.782,0,416,0h-64c-11.782,0-21.333,9.551-21.333,21.333v469.333c0,11.782,9.551,21.333,21.333,21.333h64
				c11.782,0,21.333-9.551,21.333-21.333v-21.333H480c11.782,0,21.333-9.551,21.333-21.333v-64c0-11.782-9.551-21.333-21.333-21.333
				h-42.667V149.333H480z M458.667,85.333v21.333h-21.333V85.333H458.667z M394.667,469.333h-21.333V42.667h21.333V64v64v256v64
				V469.333z M458.667,405.333v21.333h-21.333v-21.333H458.667z"/>
            </g>
        </g>

        <g id="fan" transform="translate(-1.5, -4.1) scale(.08)">
            <path d="M62.841,46.809c4.031-1.447,10.757-2.366,17.216,1.222c10.979,6.097,21.299-3.18,19.797-13.452
                C98.522,25.476,92.9,16.208,85.76,12.484c-10.678-5.565-18.762-2.468-25.019,4.323c-4.097,4.45-8.382,12.298-8.714,19.762
                c-0.157,3.514-4.237,3.329-5.218,0.591c-1.448-4.031-2.367-10.758,1.219-17.215c6.1-10.981-3.178-21.302-13.449-19.799
                c-9.104,1.334-18.371,6.953-22.095,14.096c-5.566,10.677-2.469,18.761,4.322,25.016c4.449,4.098,12.301,8.385,19.762,8.717
                c3.515,0.156,3.33,4.236,0.592,5.216c-4.033,1.449-10.76,2.369-17.216-1.219c-10.981-6.1-21.302,3.179-19.798,13.451
                c1.332,9.104,6.953,18.371,14.096,22.094c10.677,5.567,18.761,2.469,25.016-4.322c4.098-4.448,8.384-12.299,8.715-19.761
                c0.157-3.516,4.236-3.329,5.218-0.596c1.447,4.034,2.367,10.76-1.22,17.219c-6.1,10.978,3.178,21.299,13.45,19.795
                c9.104-1.332,18.371-6.949,22.094-14.092C93.084,75.081,89.985,67,83.194,60.741c-4.448-4.095-12.301-8.383-19.761-8.713
                C59.918,51.871,60.104,47.792,62.841,46.809z M50,55.074c-2.801,0-5.072-2.271-5.072-5.072c0-2.801,2.271-5.072,5.072-5.072
                c2.802,0,5.072,2.271,5.072,5.072C55.072,52.803,52.802,55.074,50,55.074z" transform-origin="50 50">
            </path>
        </g>

        <path id="one-duct" d="
                M 12,0
                l 53,0 25,25 26,0 25,-25 53,0
                l -6,12 6,12
                l -44,0 -25,25, -44,0 -25,-25 -44,0
                l -6,-12 6,-12
                z
            " />
        <clipPath id="ducts-clip">
            <use href="#one-duct" />
            <use href="#one-duct" transform-origin="50 50" transform="scale(-1,-1) translate(-106,10)" />
        </clipPath>

    </defs>

    <rect transform="translate(0,5)" class="ducts" x="0" y="0" width="200" height="100" fill="url(#channel-fill)" clip-path="url(#ducts-clip)" />

    <g class="power" transform="translate(85 45)">
        <rect x="0" y="0" width="25" height="10" fill="#ffffff80" rx="2" />
        <use href="#fan" x="3" y="5" fill="black" />
        <text class="label" x="12" y="5" dominant-baseline="middle">
            <tspan id="power">50</tspan>%
        </text>
        <title>Power level</title>
    </g>

    <g class="fresh-in">
        <g>
            <title>Incoming fresh air temperature</title>
            <text class="label white" x="12" y="0" text-anchor="end">
                <tspan id="fresh-in">14</tspan> °C
            </text>
        </g>
        <g transform="translate(24,0)" class="preheater-visible">
            <title>Preheater temperature</title>
            <use href="#radiator" x="0" y="0" />
            <text class="label" x="6" y="0">
                <tspan id="preheater">60</tspan> °C
            </text>
        </g>
    </g>

    <g class="fresh-treated">
        <title>Treated fresh air temperature</title>
        <text class="label" x="10" y="0" text-anchor="end">
            <tspan id="fresh-treated">19</tspan> °C
        </text>
    </g>

    <g class="exhaust-treated">
        <title>Treated exhaust temperature</title>
        <text class="label" x="24" y="0" text-anchor="end">
            <tspan id="exhaust-treated">14</tspan> °C
        </text>
    </g>

    <g class="exhaust-in">
        <title>Incoming exhaust temperature</title>
        <text class="label white" x="24" y="0" text-anchor="end">
            <tspan id="exhaust-in">24</tspan> °C
        </text>
    </g>

</svg>